<?xml version="1.0" encoding="utf-8"?>
<!-- Generator: Adobe Illustrator 21.0.0, SVG Export Plug-In . SVG Version: 6.00 Build 0)  -->
<svg version="1.1" id="Layer_1" xmlns="http://www.w3.org/2000/svg" xmlns:xlink="http://www.w3.org/1999/xlink" x="0px" y="0px"
	 viewBox="0 0 306 66" style="enable-background:new 0 0 306 66;" xml:space="preserve">
<style type="text/css">
	.st0{fill:#021D23;}
	.st1{fill:#FFFFFF;}
	.st2{fill:#E40045;}
</style>
<g>
	<path class="st0" d="M89.9,27.2c-1-0.5-2-0.8-3-0.8c-1.1,0-2.2,0.3-3.1,0.8c-0.9,0.6-1.7,1.3-2.2,2.3c-0.5,1-0.8,2.1-0.8,3.3
		c0,1.2,0.3,2.3,0.8,3.3c0.5,1,1.3,1.8,2.2,2.3c0.9,0.6,2,0.8,3.1,0.8c0.9,0,1.9-0.2,2.9-0.7c1-0.5,1.9-1.1,2.7-1.9l3.4,3.7
		c-1.2,1.3-2.7,2.3-4.3,3.1c-1.7,0.8-3.3,1.1-5,1.1c-2.2,0-4.2-0.5-6-1.5c-1.8-1-3.2-2.4-4.2-4.2c-1-1.8-1.5-3.8-1.5-6
		c0-2.2,0.5-4.1,1.6-5.9c1-1.8,2.5-3.1,4.3-4.1c1.8-1,3.9-1.5,6.1-1.5c1.7,0,3.3,0.3,4.9,1c1.6,0.7,3,1.6,4.1,2.8l-3.4,4.1
		C91.8,28.4,90.9,27.7,89.9,27.2z"/>
	<path class="st0" d="M115,22.9c1.8,1,3.3,2.4,4.4,4.1c1.1,1.8,1.6,3.7,1.6,5.9c0,2.2-0.5,4.2-1.6,6c-1.1,1.8-2.5,3.2-4.4,4.2
		c-1.9,1-3.9,1.5-6.2,1.5c-2.3,0-4.4-0.5-6.2-1.5c-1.9-1-3.3-2.4-4.4-4.2c-1.1-1.8-1.6-3.8-1.6-6c0-2.2,0.5-4.1,1.6-5.9
		c1.1-1.8,2.5-3.1,4.4-4.1c1.8-1,3.9-1.5,6.2-1.5C111,21.4,113.1,21.9,115,22.9z M105.7,27.2c-1,0.6-1.7,1.4-2.3,2.4
		c-0.6,1-0.8,2.1-0.8,3.4c0,1.2,0.3,2.4,0.9,3.4c0.6,1,1.3,1.8,2.3,2.4c0.9,0.6,2,0.9,3.1,0.9c1.1,0,2.1-0.3,3.1-0.9
		c0.9-0.6,1.7-1.4,2.2-2.4c0.5-1,0.8-2.1,0.8-3.4c0-1.2-0.3-2.3-0.8-3.4c-0.5-1-1.3-1.8-2.2-2.4c-0.9-0.6-2-0.9-3.1-0.9
		C107.7,26.3,106.7,26.6,105.7,27.2z"/>
	<path class="st0" d="M123.8,21.7h5.9v22.5h-5.9V21.7z"/>
	<path class="st0" d="M149.4,21.7h5.5v22.5h-5.1l-10.2-13.4v13.4h-5.5V21.7h5.2l10.2,13.5L149.4,21.7z"/>
</g>
<g>
	<path class="st1" d="M159.3,21.7h6.4l6.5,13.1l6.5-13.1h6.4v22.5h-5.2l0-14.2l-5.7,12h-3.8l-5.8-12v14.2h-5.2V21.7z"/>
	<path class="st1" d="M206.3,22.9c1.8,1,3.3,2.4,4.4,4.1c1.1,1.8,1.6,3.7,1.6,5.9c0,2.2-0.5,4.2-1.6,6c-1.1,1.8-2.5,3.2-4.4,4.2
		c-1.9,1-3.9,1.5-6.2,1.5c-2.3,0-4.4-0.5-6.2-1.5c-1.9-1-3.3-2.4-4.4-4.2c-1.1-1.8-1.6-3.8-1.6-6c0-2.2,0.5-4.1,1.6-5.9
		c1.1-1.8,2.5-3.1,4.4-4.1c1.8-1,3.9-1.5,6.2-1.5C202.4,21.4,204.5,21.9,206.3,22.9z M197.1,27.2c-1,0.6-1.7,1.4-2.3,2.4
		c-0.6,1-0.8,2.1-0.8,3.4c0,1.2,0.3,2.4,0.9,3.4c0.6,1,1.3,1.8,2.3,2.4c0.9,0.6,2,0.9,3.1,0.9c1.1,0,2.1-0.3,3.1-0.9
		c0.9-0.6,1.7-1.4,2.2-2.4c0.5-1,0.8-2.1,0.8-3.4c0-1.2-0.3-2.3-0.8-3.4c-0.5-1-1.3-1.8-2.2-2.4c-0.9-0.6-2-0.9-3.1-0.9
		C199.1,26.3,198,26.6,197.1,27.2z"/>
	<path class="st1" d="M230.5,21.7h5.5v22.5h-5.1l-10.2-13.4v13.4h-5.5V21.7h5.2l10.2,13.5L230.5,21.7z"/>
	<path class="st1" d="M262,44.2h-7l-5.9-8.7l-2.8,3.1v5.6h-5.9V21.7h5.9v9.7l8.4-9.7h6.8l-8.3,9.3L262,44.2z"/>
	<path class="st1" d="M264.4,21.7h17.7v4.7h-11.9v4.2H281v4.6l-10.7,0v4.2h12.2v4.7h-18.1V21.7z"/>
	<path class="st1" d="M306,21.7L297.9,37v7.2H292v-7l-8.3-15.5h5.9l5.3,9.7l5.2-9.7H306z"/>
</g>
<g>
	<path class="st1" d="M40.3,42.4c-0.6,0.9-1.3,1.3-2.2,1.4c3.1-2.6,2.5-3.5-0.2-5.4c-2.1-1.4-3.6-1.6-4.9,0.7
		c-1.3-2.3-2.8-2.1-4.9-0.7c-2.7,1.9-3.3,2.8-0.2,5.4c-0.9-0.1-1.6-0.5-2.2-1.4l0.1,1.2c-2.6,6.1-2.4,7.4-0.2,5.3l-0.2-0.7
		c0,0,0.7,0.2,1.1,0.1c0.7-0.6,3.6-1.1,6.5-1.3c2.9,0.2,5.7,0.7,6.5,1.3c0.4,0.1,1.1-0.1,1.1-0.1l-0.2,0.7c2.2,2.1,2.4,0.8-0.2-5.3
		L40.3,42.4z M36.3,42.3c0.4-0.4,0.9-0.7,0.7-1.2c-0.9-1.1-1.1,1.2-3.7,1.9L33,46L32.7,43c-2.6-0.6-2.8-2.9-3.7-1.9
		c-0.2,0.4,0.3,0.7,0.7,1.2c0,0-1.5-0.8-1.5-1.5c0-0.7,0.9-1.2,2-1.2l0.1-0.8c0.8,0.6,0.4,2.6,2.8,3c2.4-0.4,2-2.4,2.8-3l0.1,0.8
		c1.1,0,2,0.6,2,1.2C37.9,41.5,36.3,42.3,36.3,42.3z"/>
	<path class="st1" d="M28.2,35.2c0-0.3-6.1-1.9-6.7-1.6c-1.2,0.4,1.9,2.2,2.4,2.3C24.5,36,28.2,35.5,28.2,35.2z"/>
	<path class="st1" d="M39.4,49.9c-0.2-0.1-0.4-0.1-0.7-0.1c-0.3-0.9-2.3-1.3-5.6-1.3c-3.3,0-5.3,0.4-5.6,1.3c-0.4,0-0.5,0-0.7,0.1
		c-1.7,0.6-1.4,0.8,1.8,3.5c-2.8,0.1,1.6,2.1,4.6,1.9c3,0.2,7.3-1.8,4.6-1.9C40.8,50.7,41.1,50.5,39.4,49.9z"/>
	<path class="st1" d="M16.4,38.2c-1.1-3.8-3.6-4.4-5.1-3.4c-1.5,1-1.8,3.8-0.2,6.1c1.3,2,3.7,3,5.4,2.6c-2.4-1-3.6-2.9-3.4-5.8
		c0.7,0,1.4,0.4,2.2,1.1c-0.2-0.9-1-1.6-2.4-2.2C14.6,36.4,15.8,37,16.4,38.2z"/>
	<path class="st1" d="M45.9,25.9c0.5-0.4,1.5-0.4,2.7-0.4c-2.8-0.9-5.3-0.3-7.8,0.7c0.1-0.4,0.3-0.7,0.7-0.8
		c-2.3-0.1-4.4,2.4-7.2,7.3c0,0,0.2-1.5,0-1.5s-0.5,1-0.9,1.1c-0.4,0.1-1.5-1.4-1.6-1.5c-0.2-0.1,0,1.5,0,1.7
		c-2.8-4.8-4.8-7.2-7.1-7.1c0.4,0.2,0.6,0.5,0.7,0.8c-2.4-1-5-1.6-7.8-0.7c1.2,0,2.2,0,2.7,0.4c-8.9,3.1-1.9,20.3,4,11.8
		c-1.5-0.2-2.9-0.8-4.2-1.9c1.1-0.2,1.6-0.5-0.3-0.7c-6.4-5.7,6.4-2.4,13-1c0.2,0.1,0.4,0.1,0.6,0c6.6-1.4,19.4-4.7,13,1
		c-1.9,0.2-1.4,0.5-0.3,0.7c-1.3,1.2-2.7,1.8-4.2,1.9C47.8,46.2,54.7,29,45.9,25.9z"/>
	<path class="st1" d="M42,35.9c0.5-0.1,3.7-1.9,2.4-2.3c-0.5-0.3-6.7,1.4-6.7,1.6S41.5,36,42,35.9z"/>
	<path class="st1" d="M54.8,34.9c-1.5-1-4-0.4-5.1,3.4c0.6-1.3,1.7-1.9,3.6-1.6c-1.4,0.6-2.2,1.4-2.4,2.2c0.8-0.7,1.6-1.1,2.2-1.1
		c0.2,2.9-1,4.8-3.4,5.8c1.6,0.4,4.1-0.7,5.4-2.6C56.6,38.6,56.3,35.9,54.8,34.9z"/>
	<path class="st2" d="M33,0C14.8,0,0,14.8,0,33s14.8,33,33,33s33-14.8,33-33S51.2,0,33,0z M51,45.2l0.5,1.9L50.1,47
		c-0.6,2.6-2.5,4.6-4.9,6.4c0.5-1.4,0.6-2.6-0.2-3.4c-0.1,1.7-0.6,3.3-1.9,4.7c0.3-1,0.4-1.9-0.2-2.4c0.2,3.6-5.5,8-9.9,8
		c-4.5,0-10.1-4.4-9.9-8c-0.6,0.5-0.5,1.4-0.2,2.4c-1.3-1.4-1.8-3-1.9-4.7c-0.8,0.8-0.7,1.9-0.2,3.4c-2.4-1.7-4.3-3.7-4.9-6.4
		l-1.4,0.1l0.5-1.9C6.4,43.6,7.2,31.6,13.9,33c-0.8-3.5-3.1-5.1,0.6-2.6C14.9,6.4,38,5.6,38,5.6c-8.4,8.7,15.1,5.1,13.5,24.8
		c3.7-2.6,1.4-0.9,0.6,2.6C58.8,31.6,59.6,43.6,51,45.2z"/>
	<path class="st0" d="M52.1,33c0.8-3.5,3.1-5.1-0.6-2.6c1.6-19.7-21.8-16-13.5-24.8c0,0-23.2,0.7-23.6,24.8
		c-3.7-2.6-1.4-0.9-0.6,2.6C7.2,31.6,6.4,43.6,15,45.2l-0.5,1.9l1.4-0.1c0.6,2.6,2.5,4.6,4.9,6.4c-0.5-1.4-0.6-2.6,0.2-3.4
		c0.1,1.7,0.6,3.3,1.9,4.7c-0.3-1-0.4-1.9,0.2-2.4c-0.2,3.6,5.4,8,9.9,8c4.4,0,10.1-4.4,9.9-8c0.6,0.5,0.5,1.4,0.2,2.4
		c1.3-1.4,1.8-3,1.9-4.7c0.8,0.8,0.7,1.9,0.2,3.4c2.4-1.7,4.3-3.7,4.9-6.4l1.4,0.1L51,45.2C59.6,43.6,58.8,31.6,52.1,33z M15.2,38.8
		c-0.8-0.7-1.6-1.1-2.2-1.1c-0.2,2.9,1,4.8,3.4,5.8c-1.6,0.4-4.1-0.7-5.4-2.6c-1.5-2.3-1.3-5,0.2-6.1c1.5-1,4-0.4,5.1,3.4
		c-0.6-1.3-1.7-1.9-3.6-1.6C14.2,37.2,15,37.9,15.2,38.8z M37.6,53.4c2.8,0.1-1.6,2.1-4.6,1.9c-3,0.2-7.3-1.8-4.6-1.9
		c-3.2-2.7-3.5-2.9-1.8-3.5c0.2-0.1,0.4-0.1,0.7-0.1c0.3-0.9,2.3-1.3,5.6-1.3c3.3,0,5.3,0.4,5.6,1.3c0.4,0,0.5,0,0.7,0.1
		C41.1,50.5,40.8,50.7,37.6,53.4z M40.3,48.9l0.2-0.7c0,0-0.7,0.2-1.1,0.1c-0.7-0.6-3.6-1.1-6.5-1.3c-2.9,0.2-5.7,0.7-6.5,1.3
		c-0.4,0.1-1.1-0.1-1.1-0.1l0.2,0.7c-2.2,2.1-2.4,0.8,0.2-5.3l-0.1-1.2c0.6,0.9,1.3,1.3,2.2,1.4c-3.1-2.6-2.5-3.5,0.2-5.4
		c2.1-1.4,3.6-1.6,4.9,0.7c1.3-2.3,2.8-2.1,4.9-0.7c2.7,1.9,3.3,2.8,0.2,5.4c0.9-0.1,1.6-0.5,2.2-1.4l-0.1,1.2
		C42.8,49.7,42.5,51,40.3,48.9z M24,35.9c-0.5-0.1-3.7-1.9-2.4-2.3c0.5-0.3,6.7,1.4,6.7,1.6S24.5,36,24,35.9z M37.8,35.2
		c0-0.3,6.1-1.9,6.7-1.6c1.2,0.4-1.9,2.2-2.4,2.3C41.5,36,37.8,35.5,37.8,35.2z M41.8,37.7c1.5-0.2,2.9-0.8,4.2-1.9
		c-1.1-0.2-1.6-0.5,0.3-0.7c6.4-5.7-6.4-2.4-13-1c-0.2,0.1-0.4,0.1-0.6,0c-6.6-1.4-19.4-4.7-13,1c1.9,0.2,1.4,0.5,0.3,0.7
		c1.3,1.2,2.7,1.8,4.2,1.9c-5.9,8.5-12.9-8.8-4-11.8c-0.5-0.4-1.5-0.4-2.7-0.4c2.8-0.9,5.3-0.3,7.8,0.7c-0.1-0.4-0.3-0.7-0.7-0.8
		c2.3-0.1,4.3,2.3,7.1,7.1c0-0.3-0.2-1.8,0-1.7c0.1,0,1.2,1.5,1.6,1.5c0.4-0.1,0.8-1.1,0.9-1.1s0,1.5,0,1.5c2.8-4.9,4.9-7.4,7.2-7.3
		c-0.4,0.2-0.6,0.5-0.7,0.8c2.4-1,5-1.6,7.8-0.7c-1.2,0-2.2,0-2.7,0.4C54.7,29,47.8,46.2,41.8,37.7z M55.1,40.9
		c-1.3,2-3.7,3-5.4,2.6c2.4-1,3.6-2.9,3.4-5.8c-0.7,0-1.4,0.4-2.2,1.1c0.2-0.9,1-1.6,2.4-2.2c-1.9-0.2-3,0.4-3.6,1.6
		c1.1-3.8,3.6-4.4,5.1-3.4C56.3,35.9,56.6,38.6,55.1,40.9z"/>
	<path class="st0" d="M35.9,39.6l-0.1-0.8c-0.8,0.6-0.4,2.6-2.8,3c-2.4-0.4-2-2.4-2.8-3l-0.1,0.8c-1.1,0-2,0.6-2,1.2
		c0,0.7,1.5,1.5,1.5,1.5c-0.4-0.4-0.9-0.7-0.7-1.2c0.9-1.1,1.1,1.2,3.7,1.9L33,46l0.4-2.9c2.6-0.6,2.8-2.9,3.7-1.9
		c0.2,0.4-0.3,0.7-0.7,1.2c0,0,1.5-0.8,1.5-1.5C37.9,40.2,37,39.7,35.9,39.6z"/>
</g>
</svg>
